<svg xmlns="http://www.w3.org/2000/svg" viewBox="-0.5 -0.5 1 1" width="800" height="800">
<circle cx="0.0019" cy="-0.4438" r="0.0562" fill="#2bda5a"/>
<circle cx="-0.0814" cy="-0.3508" r="0.0562" fill="#2bda5a"/>
<circle cx="0.0853" cy="-0.3508" r="0.0562" fill="#2bda5a"/>
<circle cx="-0.1628" cy="-0.2539" r="0.0562" fill="#2bda5a"/>
<circle cx="0.0019" cy="-0.2539" r="0.0562" fill="#2bda5a"/>
<circle cx="0.1667" cy="-0.2539" r="0.0562" fill="#2bda5a"/>
<circle cx="-0.2442" cy="-0.1473" r="0.0562" fill="#2bda5a"/>
<circle cx="-0.0814" cy="-0.1473" r="0.0562" fill="#2bda5a"/>
<circle cx="0.0853" cy="-0.1473" r="0.0562" fill="#2bda5a"/>
<circle cx="0.2481" cy="-0.1473" r="0.0562" fill="#2bda5a"/>
<circle cx="-0.3178" cy="-0.0407" r="0.0562" fill="#2bda5a"/>
<circle cx="-0.1628" cy="-0.0407" r="0.0562" fill="#2bda5a"/>
<circle cx="0.0019" cy="-0.0407" r="0.0562" fill="#2bda5a"/>
<circle cx="0.1667" cy="-0.0407" r="0.0562" fill="#2bda5a"/>
<circle cx="0.3178" cy="-0.0407" r="0.0562" fill="#2bda5a"/>
<circle cx="-0.2442" cy="0.0659" r="0.0562" fill="#2bda5a"/>
<circle cx="-0.0814" cy="0.0659" r="0.0562" fill="#2bda5a"/>
<circle cx="0.0853" cy="0.0659" r="0.0562" fill="#2bda5a"/>
<circle cx="0.2481" cy="0.0659" r="0.0562" fill="#2bda5a"/>
<circle cx="-0.1628" cy="0.1725" r="0.0562" fill="#2bda5a"/>
<circle cx="0.0019" cy="0.1725" r="0.0562" fill="#2bda5a"/>
<circle cx="0.1667" cy="0.1725" r="0.0562" fill="#2bda5a"/>
<circle cx="0.0019" cy="0.1725" r="0.0562" fill="#2bda5a"/>
<circle cx="0.0019" cy="0.2597" r="0.0562" fill="#2bda5a"/>
<circle cx="0.0019" cy="0.3566" r="0.0562" fill="#2bda5a"/>
<circle cx="0.0019" cy="0.4438" r="0.0562" fill="#2bda5a"/>
</svg>