<svg xmlns="http://www.w3.org/2000/svg" viewBox="-0.5 -0.5 1 1" width="800" height="800">
<circle cx="-0.1730" cy="-0.1132" r="0.0388" fill="#2bda5a"/>
<circle cx="-0.0193" cy="-0.0858" r="0.0470" fill="#2bda5a"/>
<circle cx="-0.0217" cy="0.1057" r="0.0415" fill="#2bda5a"/>
<circle cx="0.1936" cy="-0.1878" r="0.0315" fill="#2bda5a"/>
<circle cx="0.2148" cy="-0.0909" r="0.0530" fill="#2bda5a"/>
<circle cx="0.0426" cy="0.0138" r="0.0301" fill="#2bda5a"/>
<circle cx="-0.0607" cy="-0.4079" r="0.0353" fill="#2bda5a"/>
<circle cx="-0.1125" cy="0.1389" r="0.0359" fill="#2bda5a"/>
<circle cx="-0.2779" cy="-0.0716" r="0.0248" fill="#2bda5a"/>
<circle cx="0.0805" cy="-0.1716" r="0.0670" fill="#2bda5a"/>
<circle cx="0.0685" cy="-0.3119" r="0.0383" fill="#2bda5a"/>
<circle cx="-0.1324" cy="-0.2383" r="0.0761" fill="#2bda5a"/>
<circle cx="-0.0446" cy="0.0020" r="0.0233" fill="#2bda5a"/>
<circle cx="-0.1818" cy="0.0857" r="0.0268" fill="#2bda5a"/>
<circle cx="0.0900" cy="0.0830" r="0.0365" fill="#2bda5a"/>
<circle cx="0.2005" cy="0.0159" r="0.0393" fill="#2bda5a"/>
<circle cx="0.0265" cy="-0.4315" r="0.0328" fill="#2bda5a"/>
<circle cx="-0.0037" cy="0.2249" r="0.0280" fill="#2bda5a"/>
<circle cx="0.1643" cy="-0.3457" r="0.0294" fill="#2bda5a"/>
<circle cx="-0.1435" cy="-0.0284" r="0.0272" fill="#2bda5a"/>
<circle cx="-0.0905" cy="0.0664" r="0.0233" fill="#2bda5a"/>
<circle cx="0.1113" cy="-0.0363" r="0.0287" fill="#2bda5a"/>
<circle cx="-0.0056" cy="-0.2786" r="0.0222" fill="#2bda5a"/>
<circle cx="0.2893" cy="-0.1637" r="0.0393" fill="#2bda5a"/>
<circle cx="-0.2173" cy="-0.0411" r="0.0310" fill="#2bda5a"/>
<circle cx="-0.2442" cy="-0.2046" r="0.0273" fill="#2bda5a"/>
<circle cx="0.1624" cy="0.0932" r="0.0241" fill="#2bda5a"/>
<circle cx="0.1647" cy="-0.2583" r="0.0217" fill="#2bda5a"/>
<circle cx="0.0966" cy="-0.4052" r="0.0292" fill="#2bda5a"/>
<circle cx="-0.1517" cy="-0.3600" r="0.0220" fill="#2bda5a"/>
<circle cx="-0.3015" cy="-0.1443" r="0.0271" fill="#2bda5a"/>
<circle cx="0.0743" cy="0.1965" r="0.0210" fill="#2bda5a"/>
<circle cx="-0.0476" cy="-0.3280" r="0.0207" fill="#2bda5a"/>
<circle cx="-0.0984" cy="-0.0988" r="0.0209" fill="#2bda5a"/>
<circle cx="-0.0480" cy="0.1769" r="0.0230" fill="#2bda5a"/>
<circle cx="0.2322" cy="-0.2575" r="0.0288" fill="#2bda5a"/>
<circle cx="-0.0327" cy="-0.1695" r="0.0207" fill="#2bda5a"/>
<circle cx="0.1163" cy="0.1513" r="0.0248" fill="#2bda5a"/>
<circle cx="-0.2293" cy="0.0285" r="0.0235" fill="#2bda5a"/>
<circle cx="0.0241" cy="0.1649" r="0.0219" fill="#2bda5a"/>
<circle cx="-0.0316" cy="-0.4767" r="0.0233" fill="#2bda5a"/>
<circle cx="0.0009" cy="0.2607" r="0.0358" fill="#2bda5a"/>
<circle cx="-0.0105" cy="0.3421" r="0.0277" fill="#2bda5a"/>
<circle cx="0.0041" cy="0.4170" r="0.0212" fill="#2bda5a"/>
<circle cx="-0.0056" cy="0.4853" r="0.0147" fill="#2bda5a"/>
</svg>