<svg xmlns="http://www.w3.org/2000/svg" viewBox="-0.5 -0.5 1 1" width="800" height="800">
<circle cx="-0.0043" cy="-0.4527" r="0.0473" fill="#2bda5a"/>
<circle cx="-0.0887" cy="-0.3656" r="0.0474" fill="#2bda5a"/>
<circle cx="0.1135" cy="-0.3248" r="0.0562" fill="#2bda5a"/>
<circle cx="-0.1629" cy="-0.2466" r="0.0444" fill="#2bda5a"/>
<circle cx="-0.0078" cy="-0.2706" r="0.0429" fill="#2bda5a"/>
<circle cx="0.1920" cy="-0.2303" r="0.0572" fill="#2bda5a"/>
<circle cx="-0.2087" cy="-0.1636" r="0.0452" fill="#2bda5a"/>
<circle cx="-0.0624" cy="-0.1336" r="0.0584" fill="#2bda5a"/>
<circle cx="0.0998" cy="-0.1462" r="0.0420" fill="#2bda5a"/>
<circle cx="0.2666" cy="-0.1439" r="0.0450" fill="#2bda5a"/>
<circle cx="-0.2732" cy="-0.0404" r="0.0591" fill="#2bda5a"/>
<circle cx="-0.1280" cy="-0.0439" r="0.0477" fill="#2bda5a"/>
<circle cx="0.0159" cy="-0.0483" r="0.0416" fill="#2bda5a"/>
<circle cx="0.1574" cy="-0.0270" r="0.0387" fill="#2bda5a"/>
<circle cx="0.2878" cy="-0.0374" r="0.0445" fill="#2bda5a"/>
<circle cx="-0.1977" cy="0.0407" r="0.0477" fill="#2bda5a"/>
<circle cx="-0.0860" cy="0.0651" r="0.0444" fill="#2bda5a"/>
<circle cx="0.0822" cy="0.0715" r="0.0455" fill="#2bda5a"/>
<circle cx="0.2495" cy="0.0802" r="0.0401" fill="#2bda5a"/>
<circle cx="-0.1410" cy="0.1452" r="0.0457" fill="#2bda5a"/>
<circle cx="-0.0076" cy="0.1575" r="0.0387" fill="#2bda5a"/>
<circle cx="0.1792" cy="0.1819" r="0.0608" fill="#2bda5a"/>
<circle cx="0.0189" cy="0.1598" r="0.0555" fill="#2bda5a"/>
<circle cx="0.0065" cy="0.2506" r="0.0381" fill="#2bda5a"/>
<circle cx="0.0155" cy="0.3469" r="0.0611" fill="#2bda5a"/>
<circle cx="0.0186" cy="0.4524" r="0.0476" fill="#2bda5a"/>
</svg>