<svg xmlns="http://www.w3.org/2000/svg" viewBox="-0.5 -0.5 1 1" width="800" height="800">
<circle cx="0.0039" cy="-0.4490" r="0.0510" fill="#2bda5a"/>
<circle cx="-0.0872" cy="-0.3521" r="0.0511" fill="#2bda5a"/>
<circle cx="0.1171" cy="-0.3250" r="0.0641" fill="#2bda5a"/>
<circle cx="-0.1708" cy="-0.2323" r="0.0467" fill="#2bda5a"/>
<circle cx="0.0015" cy="-0.2482" r="0.0445" fill="#2bda5a"/>
<circle cx="0.2035" cy="-0.2215" r="0.0656" fill="#2bda5a"/>
<circle cx="-0.2355" cy="-0.1323" r="0.0479" fill="#2bda5a"/>
<circle cx="-0.0698" cy="-0.1124" r="0.0673" fill="#2bda5a"/>
<circle cx="0.1080" cy="-0.1208" r="0.0432" fill="#2bda5a"/>
<circle cx="0.2873" cy="-0.1192" r="0.0475" fill="#2bda5a"/>
<circle cx="-0.3093" cy="-0.0056" r="0.0683" fill="#2bda5a"/>
<circle cx="-0.1477" cy="-0.0080" r="0.0516" fill="#2bda5a"/>
<circle cx="0.0172" cy="-0.0108" r="0.0426" fill="#2bda5a"/>
<circle cx="0.1805" cy="0.0032" r="0.0384" fill="#2bda5a"/>
<circle cx="0.3308" cy="-0.0036" r="0.0468" fill="#2bda5a"/>
<circle cx="-0.2453" cy="0.1033" r="0.0491" fill="#2bda5a"/>
<circle cx="-0.0562" cy="0.0931" r="0.0515" fill="#2bda5a"/>
<circle cx="0.0907" cy="0.1093" r="0.0467" fill="#2bda5a"/>
<circle cx="0.2685" cy="0.1135" r="0.0483" fill="#2bda5a"/>
<circle cx="-0.1584" cy="0.2320" r="0.0404" fill="#2bda5a"/>
<circle cx="-0.0026" cy="0.2070" r="0.0641" fill="#2bda5a"/>
<circle cx="0.1920" cy="0.2074" r="0.0486" fill="#2bda5a"/>
<circle cx="0.0131" cy="0.2170" r="0.0556" fill="#2bda5a"/>
<circle cx="0.0242" cy="0.3144" r="0.0448" fill="#2bda5a"/>
<circle cx="0.0356" cy="0.3989" r="0.0423" fill="#2bda5a"/>
<circle cx="0.0438" cy="0.4695" r="0.0305" fill="#2bda5a"/>
</svg>